<svg xmlns="http://www.w3.org/2000/svg" viewBox="0 0 44.8857117 46.9756813" enable-background="new 0 0 44.8857117 46.9756813"><style type="text/css">.st0{fill:#231F20;}</style><path class="st0" d="M44.727 30.588c-.324-.691-.94-1.168-1.714-1.35-.259-1.182-.617-1.762-.649-1.848l.298-.348c1.093-1.355.38-3.341-1.488-3.809-1.051-1.011-2.002-1.486-2.783-1.877-.749-.374-.45-.227-1.152-.544-.186-.913-.248-3.038-.545-4.529-.267-1.341-.803-2.313-1.631-2.952-.331-.718-.796-1.44-1.356-1.972 2.605-3.993 3.29-7.937 1.383-10.002-.85-.92-2.111-1.357-3.62-1.357-2.124 0-4.737.866-7.376 2.469l-1.754-1.411c-7.349-5.787-28.131 19.786-20.795 25.375l1.894 1.447c-1.189 3.307.464 7.25 3.91 8.516.762.28 1.588.416 2.444.368 0 0 5.567 10.209 17.312 10.212 13.587.004 17.045-13.288 17.081-13.407 0 0 1.101-1.627.542-2.98zm-42.618-5.848c-1.489-2.513 1.102-7.674 2.945-10.608 4.556-7.251 12.139-12.973 15.584-12.156l.947-.363 2.59 2.189c1.779-1.068 4.046-2.157 6.165-2.374-1.29.29-2.861.959-4.723 2.098-.045.026-4.406 2.969-7.07 5.612-1.452 1.44-7.282 8.431-7.277 8.425 1.066-2.016 1.767-3.006 3.454-5.128.954-1.2 1.972-2.367 3.014-3.444.484-.5.973-.981 1.463-1.437.337-.314.675-.615 1.012-.904l.465-.389.001-.001-3.417-2.822.181 1.265 2.484 2.188s-2.198 1.48-3.291 2.412c-4.382 3.739-8.682 9.479-10.282 15.066l.076-.003c-.797.439-1.588 1.144-2.279 2.102-.019-.005-1.789-1.304-2.041-1.732zm7.247 10.496c-2.625 0-4.753-2.24-4.753-5.004 0-2.764 2.128-5.004 4.753-5.004.68 0 1.328.151 1.913.422 0 0 1.01.509 1.294 2.917.296-.752.445-1.369.445-1.369.339 1.036.512 2.125.444 3.226.281-.374.582-1.077.582-1.077.522 3.075-1.722 5.89-4.679 5.89zm5.851-17.672s2.044-3.886 6.536-6.456c-.335-.054-1.152.05-1.296.067.816-.702 2.332-1.17 3.379-1.383-.307-.195-1.037-.244-1.399-.254l-.233.003c.985-.551 2.812-.874 4.472-.582-.209-.277-.682-.479-1.014-.578l-.159-.041.125-.029c1-.193 2.169.015 3.093.387-.105-.244-.362-.527-.554-.707l-.135-.101c.967.2 1.894.622 2.591 1.101-.095-.183-.329-.492-.491-.66.924.264 1.961.923 2.406 1.868l.042.108c-1.751-1.346-6.862-.965-11.979 2.351-2.343 1.519-4.061 3.179-5.385 4.905zm27.611 15.345c-.061.12-.705 3.607-4.39 6.502-4.652 3.656-10.764 3.285-13.073 1.237-1.233-1.154-1.767-2.803-1.767-2.803s-.14.93-.164 1.295c-.93-1.582-.852-3.514-.852-3.514s-.496.925-.724 1.444c-.685-1.743-.331-3.542-.331-3.542l-.542.807s-.254-1.972.37-3.615c.666-1.755 1.959-3.03 2.214-3.189-.98-.312-2.11-1.205-2.112-1.207 0 0 .449.03.761-.042 0 0-1.982-1.42-2.33-3.593.287.355.89.756.89.756-.195-.569-.313-1.833-.131-3.079l.001-.001c.375-2.378 2.335-3.927 4.555-3.908 2.364.021 3.948.517 5.929-1.31.419-.387.754-.72 1.343-.851.062-.014.216-.078.532-.078.32 0 .628.072.909.24 1.075.64 1.306 2.308 1.422 3.531.427 4.538.254 3.73 2.091 4.665.876.445 1.861.869 2.981 2.068l.008.01h.013c.945.023 1.432.766.996 1.308-3.17 3.786-7.597 5.599-12.532 5.75l-.665.016c-1.993.06-2.642 2.639-1.391 4.189.79.98 2.31 1.302 3.562 1.307l.018-.006c5.395.109 10.815-3.708 11.751-5.813l.064-.149c-.217.254-5.472 5.202-11.858 5.023 0 0-.698-.014-1.356-.168-.867-.202-1.525-.582-1.778-1.447.53.106 1.2.174 1.979.174 4.609 0 7.931-2.096 7.584-2.123l-.05.008c-.537.125-6.078 2.271-9.581 1.171l.05-.304c.312-1.043.865-.897 1.76-.936 3.196-.106 5.774-.91 7.707-1.827 2.061-.978 3.631-2.239 4.197-2.875.734 1.236.73 2.823.73 2.823s.288-.101.669-.101c1.198 0 1.444 1.071.537 2.159zm-22.3-29.28l.632.205-.511-1.858-.301.925.18.728zm1.75 1.421l-2.157-.659 1.425 1.193c.208-.157.453-.338.732-.535zm1.083-.734l-1.046-.877.38 1.32.666-.443zm4.39 18.705c.424.165.711.292.792.198.04-.046.014-.156-.086-.302-.264-.385-.767-.715-1.216-.88-1.025-.381-2.224-.165-3.097.531-.434.353-.626.716-.428.746.122.018.376-.087.734-.224 1.416-.536 2.216-.474 3.301-.069zm.16 1.284c.264.018.441.034.482-.038.091-.154-.609-.685-1.566-.522l-.338.084-.115.04c-.235.099-.439.206-.637.395-.227.219-.291.423-.226.473.064.051.221-.025.464-.123.812-.338 1.387-.347 1.935-.309zm-16.854 4.218c.25.354.17.56.273.66.037.036.09.048.143.026.142-.058.211-.284.225-.441v-.001c.036-.378-.164-.803-.429-1.104l-.001-.001c-.345-.4-.888-.709-1.503-.804-.56-.087-1.112.024-1.266.07h.001l-.262.077c-1.507.588-2.16 2.058-1.847 3.521.077.353.236.751.482 1.013l.001.001c.309.334.647.27.502-.041-.034-.086-.221-.437-.246-1.073-.026-.654.126-1.334.545-1.853.311-.38.692-.55.737-.575l.17-.076.081-.027.277-.072c1.037-.22 1.786.23 2.117.7zm-.468 1.084c-.101-.08-.148-.148-.176-.253-.041-.191-.02-.303.144-.418.126-.086.227-.128.228-.182.006-.103-.416-.208-.711.082-.245.261-.322.804.068 1.228.435.469 1.111.58 1.216 1.169l.017.268-.035.267c-.131.57-.671 1.113-1.563.975-.164-.024-.271-.044-.302.001-.069.096.313.533 1.013.517.999-.021 1.825-1.036 1.627-2.171-.178-.989-1.161-1.192-1.526-1.483z"/><ellipse transform="matrix(.154 -.988 .988 .154 6.089 53.549)" class="st0" cx="34.316" cy="23.219" rx=".679" ry=".495"/><ellipse transform="matrix(.481 -.877 .877 .481 -4.363 40.646)" class="st0" cx="32.143" cy="24.008" rx=".56" ry=".768"/><path class="st0" d="M32.859 21.185c.542-.047 1.069.048 1.517.273-.035-1.29-.786-2.743-1.353-2.546h-.001c-.332.108-.388.691-.381 1.044.016.423.081.815.218 1.23zm-10.592-16.134l-2.157-.659 1.425 1.193c.208-.157.453-.338.732-.535zm5.474 17.971c.424.165.711.292.792.198.04-.046.014-.156-.086-.302-.264-.385-.767-.715-1.216-.88-1.025-.381-2.224-.165-3.097.531-.434.353-.626.716-.428.746.122.018.376-.087.734-.224 1.416-.536 2.216-.474 3.301-.069zm.16 1.284c.264.018.441.034.482-.038.091-.154-.609-.685-1.566-.522l-.338.084-.115.04c-.235.099-.439.206-.637.395-.227.219-.291.423-.226.473.064.051.221-.025.464-.123.812-.338 1.387-.347 1.935-.309zm-16.854 4.218c.25.354.17.56.273.66.037.036.09.048.143.026.142-.058.211-.284.225-.441v-.001c.036-.378-.164-.803-.429-1.104l-.001-.001c-.345-.4-.888-.709-1.503-.804-.56-.087-1.112.024-1.266.07h.001l-.262.077c-1.507.588-2.16 2.058-1.847 3.521.077.353.236.751.482 1.013l.001.001c.309.334.647.27.502-.041-.034-.086-.221-.437-.246-1.073-.026-.654.126-1.334.545-1.853.311-.38.692-.55.737-.575l.17-.076.081-.027.277-.072c1.037-.22 1.786.23 2.117.7zm-.468 1.084c-.101-.08-.148-.148-.176-.253-.041-.191-.02-.303.144-.418.126-.086.227-.128.228-.182.006-.103-.416-.208-.711.082-.245.261-.322.804.068 1.228.435.469 1.111.58 1.216 1.169l.017.268-.035.267c-.131.57-.671 1.113-1.563.975-.164-.024-.271-.044-.302.001-.069.096.313.533 1.013.517.999-.021 1.825-1.036 1.627-2.171-.178-.989-1.161-1.192-1.526-1.483z"/><ellipse transform="matrix(.154 -.988 .988 .154 6.089 53.549)" class="st0" cx="34.316" cy="23.219" rx=".679" ry=".495"/><ellipse transform="matrix(.481 -.877 .877 .481 -4.363 40.646)" class="st0" cx="32.143" cy="24.008" rx=".56" ry=".768"/></svg>