<?xml version="1.0" encoding="UTF-8" standalone="no"?>
<svg width="35px" height="47px" viewBox="0 0 35 47" version="1.1" xmlns="http://www.w3.org/2000/svg" xmlns:xlink="http://www.w3.org/1999/xlink">
    <!-- Generator: Sketch 3.8.2 (29753) - http://www.bohemiancoding.com/sketch -->
    <title>Tuva Logotyp Svart 001</title>
    <desc>Created with Sketch.</desc>
    <defs>
        <polygon id="path-1" points="1.11274926e-05 44.1865479 34.8801778 44.1865479 34.8801778 0.00981522979 1.11274926e-05 0.00981522979"></polygon>
    </defs>
    <g id="Page-1" stroke="none" stroke-width="1" fill="none" fill-rule="evenodd">
        <g id="Facicon">
            <g id="Tuva-Logotyp-Svart-001">
                <path d="M3.7172332,17.3617892 C3.7172332,17.3617892 4.12740603,20.7500137 11.0918296,24.2069172 C12.7522988,25.0311264 14.0618618,26.345172 14.809264,27.933197 C16.0920094,30.658875 17.4646604,35.7228299 17.4646604,44.9777372 C17.4646604,44.9777372 17.1187824,44.3677893 17.1036976,43.9241684 C17.0900207,43.5244924 17.0372574,33.7957676 13.5945678,27.6146591 C12.9445129,26.4476074 11.9129128,25.4964127 10.6587949,24.8655358 C8.44521592,23.7520647 4.88010469,21.7552187 3.91407325,18.8187165 C3.3029707,16.9611311 3.7172332,17.3617892 3.7172332,17.3617892" id="Fill-1" fill="#121513"></path>
                <path d="M7.53335572,26.2222986 C7.75278947,26.6883214 7.9157725,26.6751871 8.90815208,27.2139397 C8.96808907,27.2516855 8.29155196,26.1350843 8.26808669,25.1545522 C8.27827732,25.1331936 9.10385239,27.2262761 10.2678636,27.8949602 C10.9696762,28.2980733 11.1935348,28.4153616 11.1935348,28.4153616 C11.1935348,28.4153616 10.1793661,27.7693863 10.2287102,26.0922443 C10.2368895,26.0389705 10.98637,27.7909291 12.5606211,28.8612533 C13.1169491,29.2771938 13.4697996,29.5500071 15.4697106,30.3276938 C16.1514101,30.5927738 15.485734,30.9938615 15.485734,30.9938615 C15.485734,30.9938615 14.4350936,30.6671607 13.2418513,30.066419 C12.2577851,29.5709975 11.6861713,28.9546665 11.3332537,28.9654686 C10.4860235,28.9913689 8.39687748,28.0086887 7.32498417,27.1015615 C6.8280569,26.6809564 7.53335572,26.2222986 7.53335572,26.2222986" id="Fill-2" fill="#121513"></path>
                <path d="M16.7218842,36.0778861 C15.737818,35.5824646 15.1662712,34.9660722 14.8132866,34.9768743 C13.9661235,35.002836 12.030105,34.1004347 10.9582117,33.1933075 C10.4612844,32.7727024 10.8901625,32.113777 10.8901625,32.113777 C11.1095962,32.5797998 11.3958724,32.6866542 12.388185,33.2253454 C12.448189,33.2631526 11.7715848,32.14649 11.7481196,31.1659579 C11.7583102,31.1445993 12.5839523,33.2377432 13.7479636,33.9063659 C14.4497761,34.3095404 14.6735677,34.4267673 14.6735677,34.4267673 C14.6735677,34.4267673 13.6593989,33.7808534 13.7088101,32.10365 C13.7169224,32.0503763 14.4664029,33.8023962 16.040654,34.8727204 C16.2485563,35.028184 16.4280991,35.1636394 16.6758252,35.3129655 L16.7218842,36.0778861" id="Fill-3" fill="#121513"></path>
                <path d="M14.2245766,37.7621477 C14.4528601,37.9992405 15.0024166,38.2076711 15.0024166,38.2076711 C15.0024166,38.2076711 13.9882479,37.5616959 14.037592,35.8845539 C14.0457713,35.8312801 14.7952519,37.5833 16.3694359,38.6535628 C16.5774052,38.8090265 16.756948,38.9445432 17.0046742,39.0938694 C17.0046742,39.0938694 17.244154,39.8938353 17.053616,39.8146611 C15.3353552,39.1008662 14.2546121,38.3232409 14.2546121,38.3232409 C14.2546121,38.3232409 14.0994732,37.6322161 14.2245766,37.7621477" id="Fill-4" fill="#121513"></path>
                <path d="M31.161939,17.3617892 C31.161939,17.3617892 30.7517662,20.7500137 23.7873425,24.2069172 C22.1268733,25.0311264 20.8173104,26.345172 20.0699082,27.933197 C18.7871627,30.658875 17.4145118,35.7228299 17.4145118,44.9777372 C17.4145118,44.9777372 17.7603898,44.3677893 17.7755416,43.9241684 C17.7891515,43.5244924 17.8419148,33.7957676 21.2846044,27.6146591 C21.9346593,26.4476074 22.9662594,25.4964127 24.2203772,24.8655358 C26.4339563,23.7520647 29.9990675,21.7552187 30.9650989,18.8187165 C31.5762015,16.9611311 31.161939,17.3617892 31.161939,17.3617892" id="Fill-5" fill="#121513"></path>
                <path d="M27.34052,26.2222986 C27.1210863,26.6883214 26.9688973,26.6935997 25.9765847,27.2322909 C25.9165807,27.2700981 26.5931848,26.1534355 26.6166501,25.1729034 C26.6064595,25.1515448 25.7808174,27.2446887 24.6168061,27.9133114 C23.9149936,28.3164859 23.691135,28.4337128 23.691135,28.4337128 C23.691135,28.4337128 24.7053708,27.7877989 24.6559596,26.1105955 C24.6478473,26.0573218 23.8983668,27.8093417 22.3241157,28.8796659 C21.7677877,29.2956064 21.4148702,29.5683583 19.4150262,30.346045 C18.7333267,30.611125 19.3990028,31.0122127 19.3990028,31.0122127 C19.3990028,31.0122127 20.4496432,30.6855119 21.6428855,30.0848316 C22.6269517,29.5894101 23.1984985,28.9730177 23.5514831,28.9838198 C24.3986462,29.0097815 26.4878593,28.0271013 27.5596856,27.1199127 C28.0566799,26.6993076 27.34052,26.2222986 27.34052,26.2222986" id="Fill-6" fill="#121513"></path>
                <path d="M18.1627856,36.0778861 C19.1469188,35.5824646 19.7184656,34.9660722 20.0713832,34.9768743 C20.9186133,35.002836 22.8546318,34.1004347 23.926458,33.1933075 C24.4234524,32.7727024 23.9900154,32.113777 23.9900154,32.113777 C23.7705816,32.5797998 23.4888644,32.6866542 22.4964848,33.2253454 C22.4365478,33.2631526 23.1130849,32.14649 23.1365502,31.1659579 C23.1263595,31.1445993 22.3007845,33.2377432 21.1367732,33.9063659 C20.4349607,34.3095404 20.2111021,34.4267673 20.2111021,34.4267673 C20.2111021,34.4267673 21.2252708,33.7808534 21.1759267,32.10365 C21.1677474,32.0503763 20.4182668,33.8023962 18.8440828,34.8727204 C18.6361135,35.028184 18.4565707,35.1636394 18.2088445,35.3129655 L18.1627856,36.0778861" id="Fill-7" fill="#121513"></path>
                <g id="Group-11" transform="translate(0.000000, 2.270887)">
                    <mask id="mask-2" fill="white">
                        <use xlink:href="#path-1"></use>
                    </mask>
                    <g id="Clip-9"></g>
                    <path d="M20.6508411,35.5002216 C20.4225576,35.7373145 19.8822531,35.9551969 19.8822531,35.9551969 C19.8822531,35.9551969 20.8964889,35.3092216 20.8470778,33.6320183 C20.8389655,33.5787445 20.0894849,35.3307644 18.5152338,36.4010886 C18.3072645,36.5565523 18.1277888,36.6920076 17.8800626,36.8413338 C17.8800626,36.8413338 17.6405828,37.6412997 17.8310538,37.5621869 C19.5493816,36.8483305 20.6301247,36.0707052 20.6301247,36.0707052 C20.6301247,36.0707052 20.7759445,35.3702901 20.6508411,35.5002216" id="Fill-8" fill="#121513" mask="url(#mask-2)"></path>
                    <path d="M17.4401224,42.083093 C17.4401224,41.5285669 21.6639372,33.4320575 22.5725122,32.0735148 C23.4811544,30.7149721 28.2737001,23.2131281 30.1072088,17.6596436 C30.6875384,15.9019772 31.2574091,13.7717012 31.4727532,11.9279252 C31.7211498,9.80096349 31.268069,8.33482984 31.160397,8.03372252 C31.1516813,8.00929514 31.123456,8.00487612 31.0967726,8.01267079 C30.868355,8.07969264 29.9831782,8.20747605 29.881473,8.16095356 C29.881473,8.16095356 30.7558558,7.79472702 31.0540658,7.51933596 C33.9713346,5.13821905 34.1140034,1.9516738 34.1491343,1.30342767 C34.1843322,0.655242917 33.7771092,0.766086745 33.5992425,1.02122395 C30.3304641,4.65715929 27.2907066,5.27391988 24.8274572,5.67948799 C20.7057499,6.35823766 18.8553461,7.59715987 18.8412669,7.60071964 C18.94438,7.55511777 19.4327257,6.51781349 24.1105598,5.1445407 C24.3234903,5.08199925 24.6742625,4.98913839 24.8925565,4.94451854 C27.6749336,4.37550794 31.5272596,2.7715867 33.1069413,0.612157442 C33.2352628,0.436685402 33.4079001,0.293742282 33.6031981,0.181364071 C33.8237716,0.0545012842 34.0018394,-0.0125819406 34.2389057,0.0165713364 C34.914236,0.0997348951 34.920337,1.26420884 34.8521536,2.24154944 C34.7846407,3.20999062 34.1216464,5.81776659 32.3498848,7.4396708 C32.1793929,7.55794104 32.886636,9.03677938 32.5679777,11.9542552 C32.4473662,13.058029 32.2402014,14.5745518 31.8639527,16.0126369 C30.6181482,20.7748707 25.4050379,28.9178413 23.2009791,32.4240906 C20.79827,36.2463614 17.4401224,42.7485242 17.4401224,44.1902305 M17.4401224,44.1902305 C17.4401224,42.7485242 14.0819078,36.2463614 11.6791987,32.4240906 C9.47520697,28.9178413 4.26209665,20.7748707 3.01622517,16.0126369 C2.64004345,14.5745518 2.43281163,13.058029 2.31220017,11.9542552 C1.99354187,9.03677938 2.70078496,7.55794104 2.53029305,7.4396708 C0.758531453,5.81776659 0.0955371504,3.20999062 0.0280242308,2.24154944 C-0.0400920814,1.26420884 -0.0340581561,0.0997348951 0.641339215,0.0165713364 C0.878405435,-0.0125819406 1.05647327,0.0545012842 1.27697972,0.181364071 C1.47227777,0.293742282 1.64491508,0.436685402 1.77323656,0.612157442 C3.35298524,2.7715867 7.20524428,4.37550794 9.98768836,4.94451854 C10.2059153,4.98913839 10.5566875,5.08199925 10.7696851,5.1445407 C15.4474521,6.51781349 15.9357978,7.55511777 16.0389109,7.60071964 C16.0248988,7.59715987 14.174428,6.35823766 10.0527207,5.67948799 C7.58947123,5.27391988 4.54971376,4.65715929 1.2809353,1.02122395 C1.10306859,0.766086745 0.695912717,0.655242917 0.731043571,1.30342767 C0.766174425,1.9516738 0.908843236,5.13821905 3.82617907,7.51933596 C4.12432202,7.79472702 4.99870484,8.16095356 4.99870484,8.16095356 C4.89699968,8.20747605 4.01182284,8.07969264 3.78340524,8.01267079 C3.75672189,8.00487612 3.72849652,8.00929514 3.71978085,8.03372252 C3.61210881,8.33482984 3.15902806,9.80096349 3.40742465,11.9279252 C3.62276874,13.7717012 4.19263947,15.9019772 4.77296899,17.6596436 C6.60647776,23.2131281 11.3990905,30.7149721 12.3076656,32.0735148 C13.2162406,33.4320575 17.4401224,41.5285669 17.4401224,42.083093" id="Fill-10" fill="#121513" mask="url(#mask-2)"></path>
                </g>
                <path d="M11.1665162,16.5716433 C10.0662635,16.5716433 9.17444932,15.7552288 9.17444932,14.7480598 C9.17444932,13.7408908 10.0662635,12.9244149 11.1665162,12.9244149 C12.266769,12.9244149 13.1585831,13.7408908 13.1585831,14.7480598 C13.1585831,15.7552288 12.266769,16.5716433 11.1665162,16.5716433 L11.1665162,16.5716433 Z M11.095383,9.71479254 C8.00829269,9.72000944 5.65928557,11.9028841 5.66726376,14.7588005 C5.67483969,17.5054074 8.09337103,19.7517441 11.0743313,19.7811429 C14.0816396,19.8107258 16.6819262,17.4371581 16.6657687,14.6772327 C16.6494771,11.9034365 14.1868311,9.70945288 11.095383,9.71479254 L11.095383,9.71479254 Z" id="Fill-12" fill="#000105"></path>
                <path d="M23.5784346,16.5716433 C22.478316,16.5716433 21.5865018,15.7552288 21.5865018,14.7480598 C21.5865018,13.7408908 22.478316,12.9244149 23.5784346,12.9244149 C24.6786874,12.9244149 25.5705686,13.7408908 25.5705686,14.7480598 C25.5705686,15.7552288 24.6786874,16.5716433 23.5784346,16.5716433 L23.5784346,16.5716433 Z M23.5073684,9.71479254 C20.4203452,9.72000944 18.071204,11.9028841 18.0791822,14.7588005 C18.0868922,17.5054074 20.5053565,19.7517441 23.4862497,19.7811429 C26.4936251,19.8107258 29.0938446,17.4371581 29.0776871,14.6772327 C29.0614625,11.9034365 26.5988165,9.70945288 23.5073684,9.71479254 L23.5073684,9.71479254 Z" id="Fill-13" fill="#000105"></path>
                <path d="M15.3507752,17.5088444 L17.2052016,21.7013925 L17.3967452,21.6966666 L19.3520052,17.3172307 L19.3520052,15.3786912 L18.5763776,15.7844434 C18.5763776,15.7844434 17.4560788,16.6748152 16.1141338,15.7844434 L15.4369933,15.4238021 L15.3507752,17.5088444" id="Fill-14" fill="#000105"></path>
                <path d="M17.4027791,0.0404463359 C22.6555122,0.0404463359 27.2747502,2.39566287 29.9408736,5.95721132 C29.5047549,6.04190926 29.1093987,6.20700887 28.7814214,6.43102879 C26.3227979,3.24835019 22.1446399,1.15361052 17.4027791,1.15361052 C12.5529782,1.15361052 7.87393729,3.12590643 5.44005295,6.43121291 C5.15176541,6.15078908 4.7712929,5.95248542 4.34321942,5.87797578 C6.9923808,2.23860342 12.0817957,0.0404463359 17.4027791,0.0404463359" id="Fill-15" fill="#000105"></path>
            </g>
        </g>
    </g>
</svg>